<svg width="27" height="27" viewBox="0 0 27 27" fill="none" xmlns="http://www.w3.org/2000/svg">
<g clip-path="url(#clip0_53_3672)">
<path d="M14.625 9C14.625 6.51375 12.6113 4.5 10.125 4.5C7.63875 4.5 5.625 6.51375 5.625 9C5.625 11.4862 7.63875 13.5 10.125 13.5C12.6113 13.5 14.625 11.4862 14.625 9ZM16.875 11.25V13.5H20.25V16.875H22.5V13.5H25.875V11.25H22.5V7.875H20.25V11.25H16.875ZM1.125 20.25V22.5H19.125V20.25C19.125 17.2575 13.1288 15.75 10.125 15.75C7.12125 15.75 1.125 17.2575 1.125 20.25Z" fill="black"/>
</g>
<defs>
<clipPath id="clip0_53_3672">
<rect width="27" height="27" fill="white"/>
</clipPath>
</defs>
</svg>
