<svg width="16" height="16" viewBox="0 0 16 16" fill="none" xmlns="http://www.w3.org/2000/svg">
<path d="M7.9331 9.7412L2.1581 15.5162C1.90517 15.7495 1.6037 15.8662 1.2537 15.8662C0.9037 15.8662 0.602467 15.7495 0.35 15.5162C0.116667 15.2637 0 14.9625 0 14.6125C0 14.2625 0.116667 13.961 0.35 13.7081L6.125 7.9331L0.35 2.1581C0.116667 1.90517 0 1.6037 0 1.2537C0 0.9037 0.116667 0.602467 0.35 0.35C0.602467 0.116667 0.9037 0 1.2537 0C1.6037 0 1.90517 0.116667 2.1581 0.35L7.9331 6.125L13.7081 0.35C13.961 0.116667 14.2625 0 14.6125 0C14.9625 0 15.2637 0.116667 15.5162 0.35C15.7495 0.602467 15.8662 0.9037 15.8662 1.2537C15.8662 1.6037 15.7495 1.90517 15.5162 2.1581L9.7412 7.9331L15.5162 13.7081C15.7495 13.961 15.8662 14.2625 15.8662 14.6125C15.8662 14.9625 15.7495 15.2637 15.5162 15.5162C15.2637 15.7495 14.9625 15.8662 14.6125 15.8662C14.2625 15.8662 13.961 15.7495 13.7081 15.5162L7.9331 9.7412Z" fill="#1C1B1F"/>
</svg>
