<svg width="22" height="16" viewBox="0 0 22 16" fill="none" xmlns="http://www.w3.org/2000/svg">
<path d="M14.4375 9C14.4375 9.91168 14.0753 10.786 13.4307 11.4307C12.786 12.0753 11.9117 12.4375 11 12.4375C10.0883 12.4375 9.21398 12.0753 8.56932 11.4307C7.92466 10.786 7.5625 9.91168 7.5625 9C7.5625 8.08832 7.92466 7.21398 8.56932 6.56932C9.21398 5.92466 10.0883 5.5625 11 5.5625C11.9117 5.5625 12.786 5.92466 13.4307 6.56932C14.0753 7.21398 14.4375 8.08832 14.4375 9Z" fill="#2F2F2F"/>
<path d="M0 8C0 8 4.125 0.4375 11 0.4375C17.875 0.4375 22 8 22 8C22 8 17.875 15.5625 11 15.5625C4.125 15.5625 0 8 0 8ZM11 12.8125C12.2764 12.8125 13.5004 12.3055 14.403 11.403C15.3055 10.5004 15.8125 9.27635 15.8125 8C15.8125 6.72365 15.3055 5.49957 14.403 4.59705C13.5004 3.69453 12.2764 3.1875 11 3.1875C9.72365 3.1875 8.49957 3.69453 7.59705 4.59705C6.69453 5.49957 6.1875 6.72365 6.1875 8C6.1875 9.27635 6.69453 10.5004 7.59705 11.403C8.49957 12.3055 9.72365 12.8125 11 12.8125Z" fill="#2F2F2F"/>
</svg>
