<svg width="28" height="28" viewBox="0 0 28 28" fill="none" xmlns="http://www.w3.org/2000/svg">
<g clip-path="url(#clip0_22_164)">
<path d="M7.00016 16.3334C6.3585 16.3334 5.8335 16.8584 5.8335 17.5V21C5.8335 21.6417 6.3585 22.1667 7.00016 22.1667H10.5002C11.1418 22.1667 11.6668 21.6417 11.6668 21C11.6668 20.3584 11.1418 19.8334 10.5002 19.8334H8.16683V17.5C8.16683 16.8584 7.64183 16.3334 7.00016 16.3334ZM7.00016 11.6667C7.64183 11.6667 8.16683 11.1417 8.16683 10.5V8.16671H10.5002C11.1418 8.16671 11.6668 7.64171 11.6668 7.00004C11.6668 6.35837 11.1418 5.83337 10.5002 5.83337H7.00016C6.3585 5.83337 5.8335 6.35837 5.8335 7.00004V10.5C5.8335 11.1417 6.3585 11.6667 7.00016 11.6667ZM19.8335 19.8334H17.5002C16.8585 19.8334 16.3335 20.3584 16.3335 21C16.3335 21.6417 16.8585 22.1667 17.5002 22.1667H21.0002C21.6418 22.1667 22.1668 21.6417 22.1668 21V17.5C22.1668 16.8584 21.6418 16.3334 21.0002 16.3334C20.3585 16.3334 19.8335 16.8584 19.8335 17.5V19.8334ZM16.3335 7.00004C16.3335 7.64171 16.8585 8.16671 17.5002 8.16671H19.8335V10.5C19.8335 11.1417 20.3585 11.6667 21.0002 11.6667C21.6418 11.6667 22.1668 11.1417 22.1668 10.5V7.00004C22.1668 6.35837 21.6418 5.83337 21.0002 5.83337H17.5002C16.8585 5.83337 16.3335 6.35837 16.3335 7.00004Z" fill="black"/>
</g>
<defs>
<clipPath id="clip0_22_164">
<rect width="28" height="28" fill="white"/>
</clipPath>
</defs>
</svg>
