<svg width="28" height="29" viewBox="0 0 28 29" fill="none" xmlns="http://www.w3.org/2000/svg">
<g clip-path="url(#clip0_177_346)">
<path d="M20.1857 15.7925H15.1143V20.8639C15.1143 21.4218 14.6579 21.8782 14.1 21.8782C13.5421 21.8782 13.0857 21.4218 13.0857 20.8639V15.7925H8.01429C7.45643 15.7925 7 15.3361 7 14.7782C7 14.2204 7.45643 13.7639 8.01429 13.7639H13.0857V8.69251C13.0857 8.13465 13.5421 7.67822 14.1 7.67822C14.6579 7.67822 15.1143 8.13465 15.1143 8.69251V13.7639H20.1857C20.7436 13.7639 21.2 14.2204 21.2 14.7782C21.2 15.3361 20.7436 15.7925 20.1857 15.7925Z" fill="#ECB01C"/>
</g>
<defs>
<clipPath id="clip0_177_346">
<rect width="28" height="28" fill="white" transform="translate(0 0.678223)"/>
</clipPath>
</defs>
</svg>
