<svg width="19" height="17" viewBox="0 0 19 17" fill="none" xmlns="http://www.w3.org/2000/svg">
<path fill-rule="evenodd" clip-rule="evenodd" d="M8.14549 13.9436C12.0918 13.9436 15.291 11.0461 15.291 7.4718C15.291 3.89752 12.0918 1 8.14549 1C4.19914 1 1 3.89752 1 7.4718C1 11.0461 4.19914 13.9436 8.14549 13.9436Z" stroke="#BFBFBF" stroke-width="2" stroke-linecap="round" stroke-linejoin="round"/>
<path fill-rule="evenodd" clip-rule="evenodd" d="M8.14549 13.9436C12.0918 13.9436 15.291 11.0461 15.291 7.4718C15.291 3.89752 12.0918 1 8.14549 1C4.19914 1 1 3.89752 1 7.4718C1 11.0461 4.19914 13.9436 8.14549 13.9436Z" stroke="#BFBFBF" stroke-width="2" stroke-linecap="round" stroke-linejoin="round"/>
<path d="M17.0768 15.5614L13.1914 12.0424" stroke="#BFBFBF" stroke-width="2" stroke-linecap="round" stroke-linejoin="round"/>
<path d="M17.0768 15.5614L13.1914 12.0424" stroke="#BFBFBF" stroke-width="2" stroke-linecap="round" stroke-linejoin="round"/>
</svg>
