<svg width="29" height="28" viewBox="0 0 29 28" fill="none" xmlns="http://www.w3.org/2000/svg">
<g clip-path="url(#clip0_32_4500)">
<path d="M23.3539 10.5467L17.7073 10.0567L15.5023 4.865C15.1056 3.92 13.7523 3.92 13.3556 4.865L11.1506 10.0683L5.51558 10.5467C4.48892 10.6283 4.06892 11.9117 4.85058 12.5883L9.13225 16.2983L7.84892 21.805C7.61558 22.8083 8.70058 23.6017 9.58725 23.065L14.4289 20.1483L19.2706 23.0767C20.1573 23.6133 21.2423 22.82 21.0089 21.8167L19.7256 16.2983L24.0073 12.5883C24.7889 11.9117 24.3806 10.6283 23.3539 10.5467ZM14.4289 17.9667L10.0423 20.615L11.2089 15.6217L7.33558 12.2617L12.4456 11.8183L14.4289 7.11667L16.4239 11.83L21.5339 12.2733L17.6606 15.6333L18.8273 20.6267L14.4289 17.9667Z" fill="black"/>
</g>
<defs>
<clipPath id="clip0_32_4500">
<rect width="28" height="28" fill="white" transform="translate(0.428711)"/>
</clipPath>
</defs>
</svg>
